<svg width="50" height="43" viewBox="0 0 50 43" fill="none" xmlns="http://www.w3.org/2000/svg">
<path fill-rule="evenodd" clip-rule="evenodd" d="M25 13.9C22.938 13.9 21.2676 15.57 21.2676 17.6286C21.2676 19.6871 22.938 21.3572 25 21.3572C27.062 21.3572 28.7323 19.6871 28.7323 17.6286C28.7323 15.57 27.062 13.9 25 13.9ZM19.4676 17.6286C19.4676 14.5745 21.9453 12.1 25 12.1C28.0547 12.1 30.5323 14.5745 30.5323 17.6286C30.5323 20.6826 28.0547 23.1572 25 23.1572C21.9453 23.1572 19.4676 20.6826 19.4676 17.6286ZM17.1196 26.2241C18.1541 25.27 19.417 24.9571 20.3676 24.9571H29.6323C30.583 24.9571 31.8458 25.27 32.8804 26.2241C33.9368 27.1985 34.65 28.7439 34.65 31C34.65 31.4971 34.247 31.9 33.75 31.9C33.2529 31.9 32.85 31.4971 32.85 31C32.85 29.1418 32.2764 28.1158 31.66 27.5473C31.0218 26.9586 30.2258 26.7571 29.6323 26.7571H20.3676C19.7742 26.7571 18.9782 26.9586 18.3399 27.5473C17.7235 28.1158 17.15 29.1418 17.15 31C17.15 31.4971 16.747 31.9 16.25 31.9C15.7529 31.9 15.35 31.4971 15.35 31C15.35 28.7439 16.0632 27.1985 17.1196 26.2241Z" fill="#AAAAAA"/>
</svg>
