<svg width="84" height="60" viewBox="0 0 84 60" fill="none" xmlns="http://www.w3.org/2000/svg">
<path d="M0.756352 15C0.786709 10.6315 0.962159 8.13273 1.97618 6.14261C3.05475 4.02578 4.77578 2.30475 6.89261 1.22618C9.29911 0 12.4494 0 18.75 0H65.25C71.5506 0 74.7009 0 77.1074 1.22618C79.2242 2.30475 80.9452 4.02578 82.0238 6.14261C83.0378 8.13273 83.2133 10.6315 83.2436 15H0.756352Z" fill="white"/>
<path fill-rule="evenodd" clip-rule="evenodd" d="M0.75 22.5V42C0.75 48.3006 0.75 51.4509 1.97618 53.8574C3.05475 55.9742 4.77578 57.6952 6.89261 58.7738C9.29911 60 12.4494 60 18.75 60H65.25C71.5506 60 74.7009 60 77.1074 58.7738C79.2242 57.6952 80.9452 55.9742 82.0238 53.8574C83.25 51.4509 83.25 48.3006 83.25 42V22.5H0.75ZM12 43.125C12 41.3777 12 40.5041 12.2855 39.8149C12.6661 38.8961 13.3961 38.1661 14.3149 37.7855C15.0041 37.5 15.8777 37.5 17.625 37.5H21.375C23.1223 37.5 23.9959 37.5 24.6851 37.7855C25.6039 38.1661 26.3339 38.8961 26.7145 39.8149C27 40.5041 27 41.3777 27 43.125C27 44.8723 27 45.7459 26.7145 46.4351C26.3339 47.3539 25.6039 48.0839 24.6851 48.4645C23.9959 48.75 23.1223 48.75 21.375 48.75H17.625C15.8777 48.75 15.0041 48.75 14.3149 48.4645C13.3961 48.0839 12.6661 47.3539 12.2855 46.4351C12 45.7459 12 44.8723 12 43.125Z" fill="white"/>
</svg>
