<svg width="34" height="34" viewBox="0 0 34 34" fill="none" xmlns="http://www.w3.org/2000/svg">
<mask id="mask0_6827_2344" style="mask-type:alpha" maskUnits="userSpaceOnUse" x="0" y="0" width="34" height="34">
<rect y="34" width="34" height="34" transform="rotate(-90 0 34)" fill="#D9D9D9"/>
</mask>
<g mask="url(#mask0_6827_2344)">
<path d="M22.6667 17L20.6834 15.0167L18.4167 17.2834V11.3334H15.5834L15.5834 17.2834L13.3167 15.0167L11.3334 17L17 22.6667L22.6667 17ZM31.1667 17C31.1667 18.9597 30.7948 20.8014 30.0511 22.525C29.3073 24.2486 28.298 25.7479 27.023 27.0229C25.748 28.2979 24.2487 29.3073 22.525 30.0511C20.8014 30.7948 18.9598 31.1667 17 31.1667C15.0403 31.1667 13.1987 30.7948 11.475 30.0511C9.75143 29.3073 8.25212 28.2979 6.97712 27.0229C5.70212 25.7479 4.69275 24.2486 3.949 22.525C3.20525 20.8014 2.83337 18.9597 2.83337 17C2.83337 15.0403 3.20525 13.1986 3.949 11.475C4.69275 9.75141 5.70212 8.2521 6.97712 6.9771C8.25212 5.7021 9.75143 4.69273 11.475 3.94898C13.1987 3.20523 15.0403 2.83335 17 2.83335C18.9598 2.83335 20.8014 3.20523 22.525 3.94898C24.2487 4.69273 25.748 5.7021 27.023 6.9771C28.298 8.2521 29.3073 9.75141 30.0511 11.475C30.7948 13.1986 31.1667 15.0403 31.1667 17ZM28.3334 17C28.3334 13.8361 27.2355 11.1563 25.0396 8.96044C22.8438 6.7646 20.1639 5.66669 17 5.66669C13.8362 5.66669 11.1563 6.7646 8.96046 8.96044C6.76462 11.1563 5.66671 13.8361 5.66671 17C5.66671 20.1639 6.76462 22.8438 8.96046 25.0396C11.1563 27.2354 13.8362 28.3334 17 28.3334C20.1639 28.3334 22.8438 27.2354 25.0396 25.0396C27.2355 22.8438 28.3334 20.1639 28.3334 17Z" fill="#2990FF"/>
</g>
</svg>
